<?xml version="1.0" encoding="UTF-8" standalone="no"?>
<!DOCTYPE svg PUBLIC "-//W3C//DTD SVG 1.1//EN"
 "http://www.w3.org/Graphics/SVG/1.1/DTD/svg11.dtd">
<!-- Generated by graphviz version 2.40.1 (0)
 -->
<!-- Title: %3 Pages: 1 -->
<svg width="866pt" height="274pt"
 viewBox="0.00 0.00 866.00 273.50" xmlns="http://www.w3.org/2000/svg" xmlns:xlink="http://www.w3.org/1999/xlink">
<g id="graph0" class="graph" transform="scale(1 1) rotate(0) translate(4 269.5)">
<title>%3</title>
<polygon fill="#ffffff" stroke="transparent" points="-4,4 -4,-269.5 862,-269.5 862,4 -4,4"/>
<!-- User -->
<g id="node1" class="node">
<title>User</title>
<polygon fill="none" stroke="#000000" points="8,-200.5 8,-228.5 76,-228.5 76,-200.5 8,-200.5"/>
<text text-anchor="start" x="23.5" y="-211.7" font-family="Helvetica,sans-Serif" font-weight="bold" font-size="16.00" fill="#000000">User</text>
<polygon fill="none" stroke="#000000" points="8,-175.5 8,-200.5 76,-200.5 76,-175.5 8,-175.5"/>
<text text-anchor="start" x="13" y="-185.3" font-family="Helvetica,sans-Serif" text-decoration="underline" font-size="14.00" fill="#000000">id</text>
<polygon fill="none" stroke="#000000" points="8,-150.5 8,-175.5 76,-175.5 76,-150.5 8,-150.5"/>
<text text-anchor="start" x="13" y="-159.3" font-family="Helvetica,sans-Serif" font-size="14.00" fill="#000000">role_id</text>
<polygon fill="none" stroke="#000000" points="8,-125.5 8,-150.5 76,-150.5 76,-125.5 8,-125.5"/>
<text text-anchor="start" x="13" y="-134.3" font-family="Helvetica,sans-Serif" font-size="14.00" fill="#000000">name</text>
<polygon fill="none" stroke="#000000" points="8,-100.5 8,-125.5 76,-125.5 76,-100.5 8,-100.5"/>
<text text-anchor="start" x="13" y="-109.3" font-family="Helvetica,sans-Serif" font-size="14.00" fill="#000000">password</text>
</g>
<!-- Role -->
<g id="node2" class="node">
<title>Role</title>
<polygon fill="none" stroke="#000000" points="196.5,-233.5 196.5,-261.5 241.5,-261.5 241.5,-233.5 196.5,-233.5"/>
<text text-anchor="start" x="201.5" y="-244.7" font-family="Helvetica,sans-Serif" font-weight="bold" font-size="16.00" fill="#000000">Role</text>
<polygon fill="none" stroke="#000000" points="196.5,-208.5 196.5,-233.5 241.5,-233.5 241.5,-208.5 196.5,-208.5"/>
<text text-anchor="start" x="201.5" y="-218.3" font-family="Helvetica,sans-Serif" text-decoration="underline" font-size="14.00" fill="#000000">id</text>
<polygon fill="none" stroke="#000000" points="196.5,-183.5 196.5,-208.5 241.5,-208.5 241.5,-183.5 196.5,-183.5"/>
<text text-anchor="start" x="201.5" y="-192.3" font-family="Helvetica,sans-Serif" font-size="14.00" fill="#000000">name</text>
</g>
<!-- User&#45;&#45;Role -->
<g id="edge1" class="edge">
<title>User&#45;&#45;Role</title>
<path fill="none" stroke="#7f7f7f" stroke-dasharray="5,2" d="M84.2761,-178.3924C116.1972,-188.8821 159.2522,-203.0305 187.8986,-212.444"/>
<text text-anchor="start" x="180.8986" y="-201.244" font-family="Times,serif" font-size="14.00" fill="#000000">1</text>
<text text-anchor="start" x="84.2761" y="-167.1924" font-family="Times,serif" font-size="14.00" fill="#000000">0..N</text>
</g>
<!-- UserDevices -->
<g id="node3" class="node">
<title>UserDevices</title>
<polygon fill="none" stroke="#000000" points="165.5,-128.5 165.5,-156.5 272.5,-156.5 272.5,-128.5 165.5,-128.5"/>
<text text-anchor="start" x="170.5" y="-139.7" font-family="Helvetica,sans-Serif" font-weight="bold" font-size="16.00" fill="#000000">UserDevices</text>
<polygon fill="none" stroke="#000000" points="165.5,-103.5 165.5,-128.5 272.5,-128.5 272.5,-103.5 165.5,-103.5"/>
<text text-anchor="start" x="170.5" y="-113.3" font-family="Helvetica,sans-Serif" text-decoration="underline" font-size="14.00" fill="#000000">id</text>
<polygon fill="none" stroke="#000000" points="165.5,-78.5 165.5,-103.5 272.5,-103.5 272.5,-78.5 165.5,-78.5"/>
<text text-anchor="start" x="170.5" y="-87.3" font-family="Helvetica,sans-Serif" font-size="14.00" fill="#000000">device_id</text>
<polygon fill="none" stroke="#000000" points="165.5,-53.5 165.5,-78.5 272.5,-78.5 272.5,-53.5 165.5,-53.5"/>
<text text-anchor="start" x="170.5" y="-62.3" font-family="Helvetica,sans-Serif" font-size="14.00" fill="#000000">user_id</text>
</g>
<!-- User&#45;&#45;UserDevices -->
<g id="edge4" class="edge">
<title>User&#45;&#45;UserDevices</title>
<path fill="none" stroke="#7f7f7f" stroke-dasharray="5,2" d="M84.2761,-150.368C105.9988,-143.1066 132.8775,-134.1217 156.8628,-126.1039"/>
<text text-anchor="start" x="149.8628" y="-114.9039" font-family="Times,serif" font-size="14.00" fill="#000000">1</text>
<text text-anchor="start" x="84.2761" y="-139.168" font-family="Times,serif" font-size="14.00" fill="#000000">0..N</text>
</g>
<!-- Device -->
<g id="node4" class="node">
<title>Device</title>
<polygon fill="none" stroke="#000000" points="361.5,-178.5 361.5,-206.5 474.5,-206.5 474.5,-178.5 361.5,-178.5"/>
<text text-anchor="start" x="392" y="-189.7" font-family="Helvetica,sans-Serif" font-weight="bold" font-size="16.00" fill="#000000">Device</text>
<polygon fill="none" stroke="#000000" points="361.5,-153.5 361.5,-178.5 474.5,-178.5 474.5,-153.5 361.5,-153.5"/>
<text text-anchor="start" x="366.5" y="-163.3" font-family="Helvetica,sans-Serif" text-decoration="underline" font-size="14.00" fill="#000000">id</text>
<polygon fill="none" stroke="#000000" points="361.5,-128.5 361.5,-153.5 474.5,-153.5 474.5,-128.5 361.5,-128.5"/>
<text text-anchor="start" x="366.5" y="-137.3" font-family="Helvetica,sans-Serif" font-size="14.00" fill="#000000">serial_number</text>
<polygon fill="none" stroke="#000000" points="361.5,-103.5 361.5,-128.5 474.5,-128.5 474.5,-103.5 361.5,-103.5"/>
<text text-anchor="start" x="366.5" y="-112.3" font-family="Helvetica,sans-Serif" font-size="14.00" fill="#000000">name</text>
<polygon fill="none" stroke="#000000" points="361.5,-78.5 361.5,-103.5 474.5,-103.5 474.5,-78.5 361.5,-78.5"/>
<text text-anchor="start" x="366.5" y="-87.3" font-family="Helvetica,sans-Serif" font-size="14.00" fill="#000000">last_update_time</text>
<polygon fill="none" stroke="#000000" points="361.5,-53.5 361.5,-78.5 474.5,-78.5 474.5,-53.5 361.5,-53.5"/>
<text text-anchor="start" x="366.5" y="-62.3" font-family="Helvetica,sans-Serif" font-size="14.00" fill="#000000">location</text>
<polygon fill="none" stroke="#000000" points="361.5,-28.5 361.5,-53.5 474.5,-53.5 474.5,-28.5 361.5,-28.5"/>
<text text-anchor="start" x="366.5" y="-37.3" font-family="Helvetica,sans-Serif" font-size="14.00" fill="#000000">status</text>
<polygon fill="none" stroke="#000000" points="361.5,-3.5 361.5,-28.5 474.5,-28.5 474.5,-3.5 361.5,-3.5"/>
<text text-anchor="start" x="366.5" y="-12.3" font-family="Helvetica,sans-Serif" font-size="14.00" fill="#000000">prints</text>
</g>
<!-- UserDevices&#45;&#45;Device -->
<g id="edge5" class="edge">
<title>UserDevices&#45;&#45;Device</title>
<path fill="none" stroke="#7f7f7f" stroke-dasharray="5,2" d="M280.102,-105.5C303.1601,-105.5 329.4106,-105.5 352.7454,-105.5"/>
<text text-anchor="start" x="327.7454" y="-94.3" font-family="Times,serif" font-size="14.00" fill="#000000">0..N</text>
<text text-anchor="start" x="280.102" y="-94.3" font-family="Times,serif" font-size="14.00" fill="#000000">1</text>
</g>
<!-- Print -->
<g id="node5" class="node">
<title>Print</title>
<polygon fill="none" stroke="#000000" points="563,-153.5 563,-181.5 653,-181.5 653,-153.5 563,-153.5"/>
<text text-anchor="start" x="589.5" y="-164.7" font-family="Helvetica,sans-Serif" font-weight="bold" font-size="16.00" fill="#000000">Print</text>
<polygon fill="none" stroke="#000000" points="563,-128.5 563,-153.5 653,-153.5 653,-128.5 563,-128.5"/>
<text text-anchor="start" x="568" y="-138.3" font-family="Helvetica,sans-Serif" text-decoration="underline" font-size="14.00" fill="#000000">id</text>
<polygon fill="none" stroke="#000000" points="563,-103.5 563,-128.5 653,-128.5 653,-103.5 563,-103.5"/>
<text text-anchor="start" x="568" y="-112.3" font-family="Helvetica,sans-Serif" font-size="14.00" fill="#000000">temperatures</text>
<polygon fill="none" stroke="#000000" points="563,-78.5 563,-103.5 653,-103.5 653,-78.5 563,-78.5"/>
<text text-anchor="start" x="568" y="-87.3" font-family="Helvetica,sans-Serif" font-size="14.00" fill="#000000">print_time</text>
<polygon fill="none" stroke="#000000" points="563,-53.5 563,-78.5 653,-78.5 653,-53.5 563,-53.5"/>
<text text-anchor="start" x="568" y="-62.3" font-family="Helvetica,sans-Serif" font-size="14.00" fill="#000000">gcode</text>
<polygon fill="none" stroke="#000000" points="563,-28.5 563,-53.5 653,-53.5 653,-28.5 563,-28.5"/>
<text text-anchor="start" x="568" y="-37.3" font-family="Helvetica,sans-Serif" font-size="14.00" fill="#000000">status</text>
</g>
<!-- Device&#45;&#45;Print -->
<g id="edge3" class="edge">
<title>Device&#45;&#45;Print</title>
<path fill="none" stroke="#7f7f7f" stroke-dasharray="5,2" d="M482.2604,-105.5C505.8826,-105.5 532.3016,-105.5 554.8031,-105.5"/>
<text text-anchor="start" x="529.8031" y="-94.3" font-family="Times,serif" font-size="14.00" fill="#000000">0..N</text>
<text text-anchor="start" x="482.2604" y="-94.3" font-family="Times,serif" font-size="14.00" fill="#000000">1</text>
</g>
<!-- Temperature -->
<g id="node6" class="node">
<title>Temperature</title>
<polygon fill="none" stroke="#000000" points="742,-153.5 742,-181.5 850,-181.5 850,-153.5 742,-153.5"/>
<text text-anchor="start" x="747" y="-164.7" font-family="Helvetica,sans-Serif" font-weight="bold" font-size="16.00" fill="#000000">Temperature</text>
<polygon fill="none" stroke="#000000" points="742,-128.5 742,-153.5 850,-153.5 850,-128.5 742,-128.5"/>
<text text-anchor="start" x="747" y="-138.3" font-family="Helvetica,sans-Serif" text-decoration="underline" font-size="14.00" fill="#000000">id</text>
<polygon fill="none" stroke="#000000" points="742,-103.5 742,-128.5 850,-128.5 850,-103.5 742,-103.5"/>
<text text-anchor="start" x="747" y="-112.3" font-family="Helvetica,sans-Serif" font-size="14.00" fill="#000000">bed</text>
<polygon fill="none" stroke="#000000" points="742,-78.5 742,-103.5 850,-103.5 850,-78.5 742,-78.5"/>
<text text-anchor="start" x="747" y="-87.3" font-family="Helvetica,sans-Serif" font-size="14.00" fill="#000000">tool1</text>
<polygon fill="none" stroke="#000000" points="742,-53.5 742,-78.5 850,-78.5 850,-53.5 742,-53.5"/>
<text text-anchor="start" x="747" y="-62.3" font-family="Helvetica,sans-Serif" font-size="14.00" fill="#000000">tool0</text>
<polygon fill="none" stroke="#000000" points="742,-28.5 742,-53.5 850,-53.5 850,-28.5 742,-28.5"/>
<text text-anchor="start" x="747" y="-37.3" font-family="Helvetica,sans-Serif" font-size="14.00" fill="#000000">date_time</text>
</g>
<!-- Print&#45;&#45;Temperature -->
<g id="edge2" class="edge">
<title>Print&#45;&#45;Temperature</title>
<path fill="none" stroke="#7f7f7f" stroke-dasharray="5,2" d="M661.1194,-105.5C683.7044,-105.5 710.1996,-105.5 733.7006,-105.5"/>
<text text-anchor="start" x="708.7006" y="-94.3" font-family="Times,serif" font-size="14.00" fill="#000000">0..N</text>
<text text-anchor="start" x="661.1194" y="-94.3" font-family="Times,serif" font-size="14.00" fill="#000000">1</text>
</g>
</g>
</svg>
