<?xml version="1.0" encoding="UTF-8" standalone="no"?><svg xmlns="http://www.w3.org/2000/svg" xmlns:xlink="http://www.w3.org/1999/xlink" contentScriptType="application/ecmascript" contentStyleType="text/css" height="545px" preserveAspectRatio="none" style="width:721px;height:545px;" version="1.1" viewBox="0 0 721 545" width="721px" zoomAndPan="magnify"><defs><filter height="300%" id="f1cqbtzxikrdik" width="300%" x="-1" y="-1"><feGaussianBlur result="blurOut" stdDeviation="2.0"/><feColorMatrix in="blurOut" result="blurOut2" type="matrix" values="0 0 0 0 0 0 0 0 0 0 0 0 0 0 0 0 0 0 .4 0"/><feOffset dx="4.0" dy="4.0" in="blurOut2" result="blurOut3"/><feBlend in="SourceGraphic" in2="blurOut3" mode="normal"/></filter></defs><g><text fill="#000000" font-family="sans-serif" font-size="18" lengthAdjust="spacingAndGlyphs" textLength="47" x="336.375" y="26.708">Print</text><ellipse cx="481.5" cy="40.9531" fill="#000000" filter="url(#f1cqbtzxikrdik)" rx="10" ry="10" style="stroke: none; stroke-width: 1.0;"/><path d="M10,67.8047 L10,108.0703 A0,0 0 0 0 10,108.0703 L387,108.0703 A0,0 0 0 0 387,108.0703 L387,91.9375 L407,87.9375 L387,83.9375 L387,77.8047 L377,67.8047 L10,67.8047 A0,0 0 0 0 10,67.8047 " fill="#FBFB77" filter="url(#f1cqbtzxikrdik)" style="stroke: #A80036; stroke-width: 1.0;"/><path d="M377,67.8047 L377,77.8047 L387,77.8047 L377,67.8047 " fill="#FBFB77" style="stroke: #A80036; stroke-width: 1.0;"/><text fill="#000000" font-family="sans-serif" font-size="13" lengthAdjust="spacingAndGlyphs" textLength="356" x="16" y="84.8716">User can start only print on device that is on idle mode</text><text fill="#000000" font-family="sans-serif" font-size="13" lengthAdjust="spacingAndGlyphs" textLength="307" x="16" y="100.0044">Device now sends update about printing status</text><rect fill="#FEFECE" filter="url(#f1cqbtzxikrdik)" height="33.9688" rx="12.5" ry="12.5" style="stroke: #A80036; stroke-width: 1.5;" width="149" x="407" y="70.9531"/><text fill="#000000" font-family="sans-serif" font-size="12" lengthAdjust="spacingAndGlyphs" textLength="129" x="417" y="92.0918">user starts new print</text><polygon fill="#FEFECE" filter="url(#f1cqbtzxikrdik)" points="428,183.7808,535,183.7808,547,195.7808,535,207.7808,428,207.7808,416,195.7808,428,183.7808" style="stroke: #A80036; stroke-width: 1.5;"/><text fill="#000000" font-family="sans-serif" font-size="11" lengthAdjust="spacingAndGlyphs" textLength="107" x="428" y="199.5889">User aborted print</text><text fill="#000000" font-family="sans-serif" font-size="11" lengthAdjust="spacingAndGlyphs" textLength="22" x="394" y="193.1865">yes</text><text fill="#000000" font-family="sans-serif" font-size="11" lengthAdjust="spacingAndGlyphs" textLength="14" x="547" y="193.1865">no</text><rect fill="#FEFECE" filter="url(#f1cqbtzxikrdik)" height="33.9688" rx="12.5" ry="12.5" style="stroke: #A80036; stroke-width: 1.5;" width="193" x="259.75" y="217.7808"/><text fill="#000000" font-family="sans-serif" font-size="12" lengthAdjust="spacingAndGlyphs" textLength="173" x="269.75" y="238.9194">device is set to abort mode</text><rect fill="#FEFECE" filter="url(#f1cqbtzxikrdik)" height="33.9688" rx="12.5" ry="12.5" style="stroke: #A80036; stroke-width: 1.5;" width="311" x="200.75" y="286.7495"/><text fill="#000000" font-family="sans-serif" font-size="12" lengthAdjust="spacingAndGlyphs" textLength="291" x="210.75" y="307.8882">after cooling printer, device is set to idle mode</text><ellipse cx="356.25" cy="351.7183" fill="#FFFFFF" filter="url(#f1cqbtzxikrdik)" rx="11" ry="11" style="stroke: #000000; stroke-width: 1.0;"/><ellipse cx="356.25" cy="351.7183" fill="#000000" rx="6" ry="6" style="stroke: #7F7F7F; stroke-width: 1.0;"/><rect fill="#FEFECE" filter="url(#f1cqbtzxikrdik)" height="33.9688" rx="12.5" ry="12.5" style="stroke: #A80036; stroke-width: 1.5;" width="150" x="531.75" y="217.7808"/><text fill="#000000" font-family="sans-serif" font-size="12" lengthAdjust="spacingAndGlyphs" textLength="130" x="541.75" y="238.9194">device sends update</text><polygon fill="#FEFECE" filter="url(#f1cqbtzxikrdik)" points="445,128.0703,518,128.0703,530,140.0703,518,152.0703,445,152.0703,433,140.0703,445,128.0703" style="stroke: #A80036; stroke-width: 1.5;"/><text fill="#000000" font-family="sans-serif" font-size="11" lengthAdjust="spacingAndGlyphs" textLength="15" x="485.5" y="162.2808">No</text><text fill="#000000" font-family="sans-serif" font-size="11" lengthAdjust="spacingAndGlyphs" textLength="73" x="445" y="143.8784">Print is done</text><text fill="#000000" font-family="sans-serif" font-size="11" lengthAdjust="spacingAndGlyphs" textLength="22" x="411" y="137.4761">Yes</text><rect fill="#FEFECE" filter="url(#f1cqbtzxikrdik)" height="33.9688" rx="12.5" ry="12.5" style="stroke: #A80036; stroke-width: 1.5;" width="338" x="312.5" y="404.7183"/><text fill="#000000" font-family="sans-serif" font-size="12" lengthAdjust="spacingAndGlyphs" textLength="318" x="322.5" y="425.8569">device sends to server information about complete</text><rect fill="#FEFECE" filter="url(#f1cqbtzxikrdik)" height="33.9688" rx="12.5" ry="12.5" style="stroke: #A80036; stroke-width: 1.5;" width="210" x="376.5" y="458.687"/><text fill="#000000" font-family="sans-serif" font-size="12" lengthAdjust="spacingAndGlyphs" textLength="190" x="386.5" y="479.8257">device is now set to idle mode</text><ellipse cx="481.5" cy="523.6558" fill="#FFFFFF" filter="url(#f1cqbtzxikrdik)" rx="11" ry="11" style="stroke: #000000; stroke-width: 1.0;"/><ellipse cx="481.5" cy="523.6558" fill="#000000" rx="6" ry="6" style="stroke: #7F7F7F; stroke-width: 1.0;"/><line style="stroke: #A80036; stroke-width: 1.5;" x1="481.5" x2="481.5" y1="50.9531" y2="70.9531"/><polygon fill="#A80036" points="477.5,60.9531,481.5,70.9531,485.5,60.9531,481.5,64.9531" style="stroke: #A80036; stroke-width: 1.0;"/><line style="stroke: #A80036; stroke-width: 1.5;" x1="356.25" x2="356.25" y1="251.7495" y2="286.7495"/><polygon fill="#A80036" points="352.25,276.7495,356.25,286.7495,360.25,276.7495,356.25,280.7495" style="stroke: #A80036; stroke-width: 1.0;"/><line style="stroke: #A80036; stroke-width: 1.5;" x1="356.25" x2="356.25" y1="320.7183" y2="340.7183"/><polygon fill="#A80036" points="352.25,330.7183,356.25,340.7183,360.25,330.7183,356.25,334.7183" style="stroke: #A80036; stroke-width: 1.0;"/><line style="stroke: #A80036; stroke-width: 1.5;" x1="416" x2="356.25" y1="195.7808" y2="195.7808"/><line style="stroke: #A80036; stroke-width: 1.5;" x1="356.25" x2="356.25" y1="195.7808" y2="217.7808"/><polygon fill="#A80036" points="352.25,207.7808,356.25,217.7808,360.25,207.7808,356.25,211.7808" style="stroke: #A80036; stroke-width: 1.0;"/><line style="stroke: #A80036; stroke-width: 1.5;" x1="547" x2="606.75" y1="195.7808" y2="195.7808"/><line style="stroke: #A80036; stroke-width: 1.5;" x1="606.75" x2="606.75" y1="195.7808" y2="217.7808"/><polygon fill="#A80036" points="602.75,207.7808,606.75,217.7808,610.75,207.7808,606.75,211.7808" style="stroke: #A80036; stroke-width: 1.0;"/><line style="stroke: #A80036; stroke-width: 1.5;" x1="606.75" x2="606.75" y1="251.7495" y2="372.7183"/><line style="stroke: #A80036; stroke-width: 1.5;" x1="606.75" x2="695.75" y1="372.7183" y2="372.7183"/><polygon fill="#A80036" points="691.75,275.3472,695.75,265.3472,699.75,275.3472,695.75,271.3472" style="stroke: #A80036; stroke-width: 1.5;"/><line style="stroke: #A80036; stroke-width: 1.5;" x1="695.75" x2="695.75" y1="140.0703" y2="372.7183"/><line style="stroke: #A80036; stroke-width: 1.5;" x1="695.75" x2="530" y1="140.0703" y2="140.0703"/><polygon fill="#A80036" points="540,136.0703,530,140.0703,540,144.0703,536,140.0703" style="stroke: #A80036; stroke-width: 1.0;"/><line style="stroke: #A80036; stroke-width: 1.5;" x1="481.5" x2="481.5" y1="152.0703" y2="183.7808"/><polygon fill="#A80036" points="477.5,173.7808,481.5,183.7808,485.5,173.7808,481.5,177.7808" style="stroke: #A80036; stroke-width: 1.0;"/><line style="stroke: #A80036; stroke-width: 1.5;" x1="433" x2="178.75" y1="140.0703" y2="140.0703"/><polygon fill="#A80036" points="174.75,261.3472,178.75,271.3472,182.75,261.3472,178.75,265.3472" style="stroke: #A80036; stroke-width: 1.5;"/><line style="stroke: #A80036; stroke-width: 1.5;" x1="178.75" x2="178.75" y1="140.0703" y2="384.7183"/><line style="stroke: #A80036; stroke-width: 1.5;" x1="178.75" x2="481.5" y1="384.7183" y2="384.7183"/><line style="stroke: #A80036; stroke-width: 1.5;" x1="481.5" x2="481.5" y1="384.7183" y2="404.7183"/><polygon fill="#A80036" points="477.5,394.7183,481.5,404.7183,485.5,394.7183,481.5,398.7183" style="stroke: #A80036; stroke-width: 1.0;"/><line style="stroke: #A80036; stroke-width: 1.5;" x1="481.5" x2="481.5" y1="104.9219" y2="128.0703"/><polygon fill="#A80036" points="477.5,118.0703,481.5,128.0703,485.5,118.0703,481.5,122.0703" style="stroke: #A80036; stroke-width: 1.0;"/><line style="stroke: #A80036; stroke-width: 1.5;" x1="481.5" x2="481.5" y1="438.687" y2="458.687"/><polygon fill="#A80036" points="477.5,448.687,481.5,458.687,485.5,448.687,481.5,452.687" style="stroke: #A80036; stroke-width: 1.0;"/><line style="stroke: #A80036; stroke-width: 1.5;" x1="481.5" x2="481.5" y1="492.6558" y2="512.6558"/><polygon fill="#A80036" points="477.5,502.6558,481.5,512.6558,485.5,502.6558,481.5,506.6558" style="stroke: #A80036; stroke-width: 1.0;"/><!--MD5=[d6dcb7a4438cb9564f843e0f611dc225]
@startuml
title Print 

start

:user starts new print;

note left
    User can start only print on device that is on idle mode
    Device now sends update about printing status
end note

while(Print is done) is (No)
  if(User aborted print) then (yes)
  :device is set to abort mode;
  :after cooling printer, device is set to idle mode;
  stop
  else (no)
  :device sends update;
  endif
endwhile(Yes)
:device sends to server information about complete;

:device is now set to idle mode;
stop
@enduml

PlantUML version 1.2020.08beta5(Unknown compile time)
(GPL source distribution)
Java Runtime: Java(TM) SE Runtime Environment
JVM: Java HotSpot(TM) 64-Bit Server VM
Java Version: 14.0.1+7
Operating System: Linux
Default Encoding: UTF-8
Language: en
Country: US
--></g></svg>