<?xml version="1.0" encoding="UTF-8" standalone="no"?><svg xmlns="http://www.w3.org/2000/svg" xmlns:xlink="http://www.w3.org/1999/xlink" contentScriptType="application/ecmascript" contentStyleType="text/css" height="408px" preserveAspectRatio="none" style="width:331px;height:408px;" version="1.1" viewBox="0 0 331 408" width="331px" zoomAndPan="magnify"><defs><filter height="300%" id="fq8fnig3wgfzl" width="300%" x="-1" y="-1"><feGaussianBlur result="blurOut" stdDeviation="2.0"/><feColorMatrix in="blurOut" result="blurOut2" type="matrix" values="0 0 0 0 0 0 0 0 0 0 0 0 0 0 0 0 0 0 .4 0"/><feOffset dx="4.0" dy="4.0" in="blurOut2" result="blurOut3"/><feBlend in="SourceGraphic" in2="blurOut3" mode="normal"/></filter></defs><g><rect fill="#FFFFFF" filter="url(#fq8fnig3wgfzl)" height="90.2031" style="stroke: #000000; stroke-width: 2.0;" width="306" x="13" y="84.4297"/><rect fill="#FFFFFF" height="43.9375" style="stroke: none; stroke-width: 1.0;" width="306" x="13" y="130.6953"/><rect fill="#FFFFFF" filter="url(#fq8fnig3wgfzl)" height="46.2656" style="stroke: #000000; stroke-width: 2.0;" width="306" x="13" y="246.8984"/><line style="stroke: #A80036; stroke-width: 1.0; stroke-dasharray: 5.0,5.0;" x1="55" x2="55" y1="38.2969" y2="368.4297"/><line style="stroke: #A80036; stroke-width: 1.0; stroke-dasharray: 5.0,5.0;" x1="277" x2="277" y1="38.2969" y2="368.4297"/><rect fill="#FEFECE" filter="url(#fq8fnig3wgfzl)" height="30.2969" style="stroke: #A80036; stroke-width: 1.5;" width="61" x="23" y="3"/><text fill="#000000" font-family="sans-serif" font-size="14" lengthAdjust="spacingAndGlyphs" textLength="47" x="30" y="22.9951">Device</text><rect fill="#FEFECE" filter="url(#fq8fnig3wgfzl)" height="30.2969" style="stroke: #A80036; stroke-width: 1.5;" width="61" x="23" y="367.4297"/><text fill="#000000" font-family="sans-serif" font-size="14" lengthAdjust="spacingAndGlyphs" textLength="47" x="30" y="387.4248">Device</text><rect fill="#FEFECE" filter="url(#fq8fnig3wgfzl)" height="30.2969" style="stroke: #A80036; stroke-width: 1.5;" width="59" x="246" y="3"/><text fill="#000000" font-family="sans-serif" font-size="14" lengthAdjust="spacingAndGlyphs" textLength="45" x="253" y="22.9951">Server</text><rect fill="#FEFECE" filter="url(#fq8fnig3wgfzl)" height="30.2969" style="stroke: #A80036; stroke-width: 1.5;" width="59" x="246" y="367.4297"/><text fill="#000000" font-family="sans-serif" font-size="14" lengthAdjust="spacingAndGlyphs" textLength="45" x="253" y="387.4248">Server</text><polygon fill="#A80036" points="265.5,65.4297,275.5,69.4297,265.5,73.4297,269.5,69.4297" style="stroke: #A80036; stroke-width: 1.0;"/><line style="stroke: #A80036; stroke-width: 1.0;" x1="55.5" x2="271.5" y1="69.4297" y2="69.4297"/><text fill="#000000" font-family="sans-serif" font-size="13" lengthAdjust="spacingAndGlyphs" textLength="19" x="62.5" y="64.3638">Init</text><path d="M13,84.4297 L79,84.4297 L79,91.4297 L69,101.4297 L13,101.4297 L13,84.4297 " fill="#EEEEEE" style="stroke: #000000; stroke-width: 1.0;"/><rect fill="none" height="90.2031" style="stroke: #000000; stroke-width: 2.0;" width="306" x="13" y="84.4297"/><text fill="#000000" font-family="sans-serif" font-size="13" font-weight="bold" lengthAdjust="spacingAndGlyphs" textLength="21" x="28" y="97.4966">alt</text><text fill="#000000" font-family="sans-serif" font-size="11" font-weight="bold" lengthAdjust="spacingAndGlyphs" textLength="114" x="94" y="96.6401">[successful case]</text><polygon fill="#A80036" points="66.5,118.6953,56.5,122.6953,66.5,126.6953,62.5,122.6953" style="stroke: #A80036; stroke-width: 1.0;"/><line style="stroke: #A80036; stroke-width: 1.0; stroke-dasharray: 2.0,2.0;" x1="60.5" x2="276.5" y1="122.6953" y2="122.6953"/><text fill="#000000" font-family="sans-serif" font-size="13" lengthAdjust="spacingAndGlyphs" textLength="88" x="72.5" y="117.6294">Init Response</text><line style="stroke: #000000; stroke-width: 1.0; stroke-dasharray: 2.0,2.0;" x1="13" x2="319" y1="131.6953" y2="131.6953"/><text fill="#000000" font-family="sans-serif" font-size="11" font-weight="bold" lengthAdjust="spacingAndGlyphs" textLength="146" x="18" y="141.9058">[some kind of failure]</text><polygon fill="#A80036" points="66.5,162.6328,56.5,166.6328,66.5,170.6328,62.5,166.6328" style="stroke: #A80036; stroke-width: 1.0;"/><line style="stroke: #A80036; stroke-width: 1.0;" x1="60.5" x2="276.5" y1="166.6328" y2="166.6328"/><text fill="#000000" font-family="sans-serif" font-size="13" lengthAdjust="spacingAndGlyphs" textLength="92" x="72.5" y="161.5669">Please repeat</text><polygon fill="#A80036" points="265.5,198.7656,275.5,202.7656,265.5,206.7656,269.5,202.7656" style="stroke: #A80036; stroke-width: 1.0;"/><line style="stroke: #A80036; stroke-width: 1.0;" x1="55.5" x2="271.5" y1="202.7656" y2="202.7656"/><text fill="#000000" font-family="sans-serif" font-size="13" lengthAdjust="spacingAndGlyphs" textLength="65" x="62.5" y="197.6997">Start print</text><polygon fill="#A80036" points="66.5,227.8984,56.5,231.8984,66.5,235.8984,62.5,231.8984" style="stroke: #A80036; stroke-width: 1.0;"/><line style="stroke: #A80036; stroke-width: 1.0; stroke-dasharray: 2.0,2.0;" x1="60.5" x2="276.5" y1="231.8984" y2="231.8984"/><text fill="#000000" font-family="sans-serif" font-size="13" lengthAdjust="spacingAndGlyphs" textLength="134" x="72.5" y="226.8325">Start print Response</text><path d="M13,246.8984 L91,246.8984 L91,253.8984 L81,263.8984 L13,263.8984 L13,246.8984 " fill="#EEEEEE" style="stroke: #000000; stroke-width: 1.0;"/><rect fill="none" height="46.2656" style="stroke: #000000; stroke-width: 2.0;" width="306" x="13" y="246.8984"/><text fill="#000000" font-family="sans-serif" font-size="13" font-weight="bold" lengthAdjust="spacingAndGlyphs" textLength="33" x="28" y="259.9653">loop</text><text fill="#000000" font-family="sans-serif" font-size="11" font-weight="bold" lengthAdjust="spacingAndGlyphs" textLength="101" x="106" y="259.1089">[while printing]</text><polygon fill="#A80036" points="265.5,281.1641,275.5,285.1641,265.5,289.1641,269.5,285.1641" style="stroke: #A80036; stroke-width: 1.0;"/><line style="stroke: #A80036; stroke-width: 1.0;" x1="55.5" x2="271.5" y1="285.1641" y2="285.1641"/><text fill="#000000" font-family="sans-serif" font-size="13" lengthAdjust="spacingAndGlyphs" textLength="198" x="62.5" y="280.0981">Update information about print</text><polygon fill="#A80036" points="265.5,317.2969,275.5,321.2969,265.5,325.2969,269.5,321.2969" style="stroke: #A80036; stroke-width: 1.0;"/><line style="stroke: #A80036; stroke-width: 1.0;" x1="55.5" x2="271.5" y1="321.2969" y2="321.2969"/><text fill="#000000" font-family="sans-serif" font-size="13" lengthAdjust="spacingAndGlyphs" textLength="63" x="62.5" y="316.231">Stop print</text><polygon fill="#A80036" points="66.5,346.4297,56.5,350.4297,66.5,354.4297,62.5,350.4297" style="stroke: #A80036; stroke-width: 1.0;"/><line style="stroke: #A80036; stroke-width: 1.0; stroke-dasharray: 2.0,2.0;" x1="60.5" x2="276.5" y1="350.4297" y2="350.4297"/><text fill="#000000" font-family="sans-serif" font-size="13" lengthAdjust="spacingAndGlyphs" textLength="132" x="72.5" y="345.3638">Stop print Response</text><!--MD5=[830eabdd6bc83a3a041c0ffad0641a5d]
@startuml
Device -> Server: Init
alt successful case
Server - -> Device: Init Response
else some kind of failure
Server -> Device: Please repeat
end

Device -> Server: Start print
Server - -> Device: Start print Response

loop while printing
Device -> Server: Update information about print
end

Device -> Server: Stop print
Server - -> Device: Stop print Response
@enduml

PlantUML version 1.2020.09beta3(Unknown compile time)
(GPL source distribution)
Java Runtime: Java(TM) SE Runtime Environment
JVM: Java HotSpot(TM) 64-Bit Server VM
Java Version: 14.0.1+7
Operating System: Linux
Default Encoding: UTF-8
Language: en
Country: US
--></g></svg>